<svg viewBox="0 0 630 660" xmlns="http://www.w3.org/2000/svg" fill="none" stroke="#FFFFFF" stroke-width="1.5" stroke-linecap="round" stroke-linejoin="round" aria-hidden="true">
  <!-- waterline -->
  <line x1="20" y1="440" x2="610" y2="440"/>

  <!-- ship (left) -->
  <path d="M40 432 L60 432 L66 424 L40 424 Z"/>
  <rect x="44" y="414" width="6" height="6"/>
  <rect x="52" y="410" width="6" height="10"/>
  <path d="M38 432 q-6 0 -6 -6 l40 0 q0 6 -6 6 Z"/>

  <!-- crane -->
  <line x1="120" y1="440" x2="120" y2="386"/>
  <line x1="112" y1="394" x2="150" y2="386"/>
  <line x1="120" y1="386" x2="108" y2="392"/>
  <line x1="146" y1="386" x2="146" y2="400"/>

  <!-- small containers -->
  <rect x="100" y="420" width="14" height="10"/>
  <rect x="114" y="420" width="14" height="10"/>

  <!-- truck (left-centre) -->
  <rect x="168" y="420" width="22" height="14"/>
  <rect x="190" y="424" width="10" height="10"/>
  <circle cx="176" cy="436" r="3"/>
  <circle cx="194" cy="436" r="3"/>

  <!-- tall buildings cluster -->
  <rect x="215" y="330" width="26" height="110"/>
  <line x1="270" y1="250" x2="270" y2="440"/>
  <line x1="255" y1="290" x2="270" y2="250"/>
  <line x1="270" y1="250" x2="288" y2="300"/>
  <rect x="255" y="300" width="30" height="140"/>
  <rect x="295" y="320" width="34" height="120"/>

  <!-- control tower -->
  <line x1="352" y1="440" x2="352" y2="368"/>
  <path d="M346 368 l12 0 l-2 -10 l-8 0 Z"/>
  <circle cx="352" cy="360" r="2"/>

  <!-- plane -->
  <path d="M392 352 l18 -4 l4 -6 l2 6 l8 -2 l-6 6 l6 4 l-10 0 l-4 6 l-2 -6 Z"/>

  <!-- clouds -->
  <path d="M395 388 q4 -8 12 -6 q4 -8 12 -2 q8 -2 8 6 l-34 0 q-2 0 2 2 Z"/>

  <!-- terminal / hangar -->
  <rect x="345" y="406" width="60" height="34"/>
  <line x1="345" y1="416" x2="405" y2="416"/>
  <line x1="357" y1="416" x2="357" y2="440"/>
  <line x1="369" y1="416" x2="369" y2="440"/>
  <line x1="381" y1="416" x2="381" y2="440"/>
  <line x1="393" y1="416" x2="393" y2="440"/>

  <!-- warehouse + trees (right-centre) -->
  <path d="M420 440 l0 -22 l18 -10 l18 10 l0 22"/>
  <line x1="462" y1="440" x2="462" y2="430"/>
  <path d="M462 430 q-4 -2 0 -8 q4 6 0 8"/>
  <line x1="474" y1="440" x2="474" y2="428"/>
  <path d="M474 428 q-5 -2 0 -10 q5 8 0 10"/>

  <!-- train + wagons (right) -->
  <rect x="498" y="422" width="24" height="14"/>
  <rect x="524" y="424" width="22" height="12"/>
  <rect x="548" y="424" width="22" height="12"/>
  <circle cx="504" cy="438" r="2"/>
  <circle cx="516" cy="438" r="2"/>
  <circle cx="530" cy="438" r="2"/>
  <circle cx="566" cy="438" r="2"/>

  <!-- flowing route/root lines below waterline (cyan accent) -->
  <g stroke="#3CC8E8" stroke-width="1.2" opacity="0.9">
    <path d="M150 440 C120 500, 100 540, 130 620"/>
    <path d="M200 440 C190 510, 230 540, 210 630"/>
    <path d="M270 440 C250 520, 300 560, 280 640"/>
    <path d="M330 440 C340 520, 300 560, 330 630"/>
    <path d="M390 440 C400 510, 360 560, 390 620"/>
    <path d="M460 440 C490 500, 520 540, 500 600"/>
    <path d="M250 440 C300 520, 200 580, 260 650"/>
  </g>
</svg>
